HIERARCHY
ROOT Hips
{
 OFFSET 0.000000 0.000000 0.000000
 CHANNELS 6 Xposition Yposition Zposition Yrotation Xrotation Zrotation
 JOINT Chest
 {
  OFFSET 0.000000 9.303000 0.001900
  CHANNELS 3 Yrotation Xrotation Zrotation
  JOINT Chest2
  {
   OFFSET 0.000000 9.301100 -0.003900
   CHANNELS 3 Yrotation Xrotation Zrotation
   JOINT Chest3
   {
    OFFSET 0.000000 9.262800 0.000000
    CHANNELS 3 Yrotation Xrotation Zrotation
    JOINT Chest4
    {
     OFFSET 0.000000 9.253300 0.000000
     CHANNELS 3 Yrotation Xrotation Zrotation
     JOINT Neck
     {
      OFFSET 0.000000 14.010300 0.000000
      CHANNELS 3 Yrotation Xrotation Zrotation
      JOINT Head
      {
       OFFSET 0.000000 8.657600 -0.008300
       CHANNELS 3 Yrotation Xrotation Zrotation
       End Site
       {
        OFFSET 0.000000 16.540200 -0.004400
       }
      }
     }
     JOINT RightCollar
     {
      OFFSET -2.834100 9.267700 0.000000
      CHANNELS 3 Yrotation Xrotation Zrotation
      JOINT RightShoulder
      {
       OFFSET -13.135200 0.000000 0.000000
       CHANNELS 3 Yrotation Xrotation Zrotation
       JOINT RightElbow
       {
        OFFSET 0.000000 -28.893500 0.000000
        CHANNELS 3 Yrotation Xrotation Zrotation
        JOINT RightWrist
        {
         OFFSET 0.000000 -23.344000 0.000000
         CHANNELS 3 Yrotation Xrotation Zrotation
         End Site
         {
          OFFSET 0.000000 -17.223000 0.000000
         }
        }
       }
      }
     }
     JOINT LeftCollar
     {
      OFFSET 2.834100 9.267700 0.000000
      CHANNELS 3 Yrotation Xrotation Zrotation
      JOINT LeftShoulder
      {
       OFFSET 13.135200 0.000000 0.000000
       CHANNELS 3 Yrotation Xrotation Zrotation
       JOINT LeftElbow
       {
        OFFSET 0.000000 -28.893500 0.000000
        CHANNELS 3 Yrotation Xrotation Zrotation
        JOINT LeftWrist
        {
         OFFSET 0.000000 -23.344000 0.000000
         CHANNELS 3 Yrotation Xrotation Zrotation
         End Site
         {
          OFFSET 0.000000 -17.223000 0.000000
         }
        }
       }
      }
     }
    }
   }
  }
 }
 JOINT RightHip
 {
  OFFSET -7.547200 -0.009500 -0.001000
  CHANNELS 3 Yrotation Xrotation Zrotation
  JOINT RightKnee
  {
   OFFSET 0.000000 -39.762800 0.000900
   CHANNELS 3 Yrotation Xrotation Zrotation
   JOINT RightAnkle
   {
    OFFSET 0.000000 -38.588200 0.001600
    CHANNELS 3 Yrotation Xrotation Zrotation
    JOINT RightToe
    {
     OFFSET 0.000000 -4.693300 10.419700
     CHANNELS 3 Yrotation Xrotation Zrotation
     End Site
     {
      OFFSET 0.000000 -1.379900 5.669300
     }
    }
   }
  }
 }
 JOINT LeftHip
 {
  OFFSET 7.547200 -0.009500 -0.001000
  CHANNELS 3 Yrotation Xrotation Zrotation
  JOINT LeftKnee
  {
   OFFSET 0.000000 -39.762800 0.000900
   CHANNELS 3 Yrotation Xrotation Zrotation
   JOINT LeftAnkle
   {
    OFFSET 0.000000 -38.588200 0.001600
    CHANNELS 3 Yrotation Xrotation Zrotation
    JOINT LeftToe
    {
     OFFSET 0.000000 -4.693300 10.419700
     CHANNELS 3 Yrotation Xrotation Zrotation
     End Site
     {
      OFFSET 0.000000 -1.379900 5.669300
     }
    }
   }
  }
 }
}
MOTION
Frames: 8
Frame Time: 0.008333
0.000000 82.880600 0.000000 0.000000 -5.767877 0.000000 0.000000 11.653817 0.000000 0.000000 -5.885947 0.000000 0.000000 -0.000000 0.000000 0.000000 -0.000000 0.000000 0.000000 12.528835 0.000000 0.000000 0.711642 0.000000 0.000000 -0.000000 0.000000 0.000000 0.000000 -90.000000 0.000000 -2.309062 0.000000 0.000000 2.309062 0.000000 0.000000 -0.000000 0.000000 0.000000 -0.000000 90.000000 0.000000 -2.309062 0.000000 0.000000 2.309062 0.000000 0.000000 8.520406 0.000000 0.000000 1.905762 0.000000 -0.000000 -4.658285 0.000000 0.000000 -0.000000 0.000000 0.000000 8.520406 0.000000 0.000000 1.905762 0.000000 -0.000000 -4.658285 0.000000 0.000000 -0.000000 0.000000
5.059307 46.018693 3.061507 166.161332 -9.722366 0.228354 2.268708 7.807543 0.223968 0.110177 0.384578 0.018732 0.195369 0.666977 0.033854 2.178915 7.375070 0.500225 -1.082574 21.666174 0.018059 -1.162120 -2.615807 0.266217 1.226654 5.582167 -5.418862 -1.760329 -5.203710 -2.430560 -53.956972 -77.951129 66.875278 -11.445038 -9.906866 -23.577659 -8.723531 3.446018 -3.480213 14.974905 -6.926624 8.798984 53.298882 -63.733470 -75.918728 8.945356 -4.712865 16.622862 -20.839857 -78.042728 15.771078 -129.147694 83.038846 -130.949709 -10.844746 -10.498265 0.020872 0.149543 -0.317933 0.055230 0.788033 -77.279860 20.079856 87.762932 78.226326 84.613984 -12.071556 -7.906811 2.457042 0.092866 0.423866 0.044958
5.058026 46.018852 3.058640 166.168391 -9.723631 0.237024 2.260190 7.809230 0.213457 0.108787 0.387425 0.019540 0.196186 0.664350 0.032877 2.174818 7.376358 0.498504 -1.080137 21.669002 0.018373 -1.163550 -2.602806 0.265886 1.228423 5.584903 -5.418313 -1.771191 -5.203592 -2.427792 -53.952782 -77.944115 66.877094 -11.439226 -9.915823 -23.587466 -8.732407 3.442367 -3.481923 14.976469 -6.932085 8.806076 53.287016 -63.726133 -75.910195 8.943053 -4.706646 16.618848 -20.793010 -78.044607 15.715251 -129.165308 83.037338 -130.962324 -10.952217 -10.505897 0.036782 0.133407 -0.314330 0.054099 0.822514 -77.277284 20.036795 87.770746 78.220586 84.620990 -12.074438 -7.907755 2.455105 0.100784 0.424695 0.046408
5.052764 46.019449 3.051367 166.192928 -9.743088 0.273251 2.227583 7.835658 0.173996 0.110923 0.383351 0.018825 0.190348 0.670322 0.034674 2.175636 7.377080 0.495336 -1.079603 21.673053 0.017715 -1.161262 -2.601190 0.264777 1.230109 5.580008 -5.419905 -1.776163 -5.199626 -2.423246 -53.937111 -77.938080 66.864213 -11.435241 -9.928269 -23.592115 -8.740945 3.432085 -3.484914 14.974508 -6.931146 8.814847 53.290432 -63.718564 -75.915580 8.940995 -4.705837 16.626051 -20.601184 -78.040435 15.509263 -129.095958 83.026752 -130.867985 -11.291125 -10.522758 0.083740 0.060108 -0.305356 0.032397 0.965670 -77.257076 19.864472 87.788303 78.212998 84.635824 -12.089017 -7.895143 2.450423 0.113628 0.410318 0.052718
5.050793 46.019464 3.047326 166.203208 -9.745625 0.287828 2.211118 7.840684 0.158660 0.110804 0.383239 0.018819 0.193336 0.668996 0.033482 2.166429 7.384537 0.498784 -1.076783 21.675200 0.012870 -1.156819 -2.606535 0.262164 1.234360 5.574061 -5.427713 -1.773213 -5.197329 -2.419263 -53.907513 -77.928621 66.831753 -11.448001 -9.940048 -23.619641 -8.742110 3.421404 -3.496916 14.966666 -6.928921 8.824360 53.302870 -63.715753 -75.918877 8.942753 -4.705597 16.622512 -20.527915 -78.044705 15.428271 -129.096095 83.022767 -130.856920 -11.475069 -10.530013 0.107541 0.032613 -0.303359 0.023883 1.027523 -77.252858 19.791984 87.790547 78.210324 84.637335 -12.098833 -7.894000 2.449101 0.119121 0.407525 0.054836
5.052805 46.018982 3.046264 166.201840 -9.734453 0.276623 2.212923 7.835498 0.171533 0.110983 0.384854 0.017960 0.192991 0.665259 0.033768 2.165491 7.387085 0.496606 -1.083172 21.698687 0.011598 -1.155689 -2.613347 0.260238 1.228370 5.569554 -5.430770 -1.765876 -5.194413 -2.414387 -53.878482 -77.920085 66.797287 -11.447516 -9.951408 -23.619561 -8.763504 3.408751 -3.504415 14.984376 -6.925172 8.832888 53.301807 -63.713800 -75.922615 8.953020 -4.704451 16.608015 -20.591676 -78.052054 15.487991 -129.174314 83.024672 -130.937227 -11.487268 -10.529826 0.102766 0.043287 -0.308207 0.031851 0.977672 -77.264999 19.847939 87.799817 78.210501 84.645825 -12.102728 -7.898091 2.451423 0.117192 0.410267 0.053108
5.053202 46.019053 3.040957 166.211659 -9.745895 0.279812 2.202640 7.849440 0.167716 0.111437 0.388275 0.016184 0.193084 0.669906 0.033333 2.163532 7.384528 0.495758 -1.085130 21.709890 0.012257 -1.157944 -2.606188 0.259874 1.219761 5.565138 -5.433555 -1.755990 -5.185873 -2.408739 -53.897982 -77.922207 66.813968 -11.451108 -9.957433 -23.624314 -8.772527 3.396827 -3.504481 14.992754 -6.921851 8.836287 53.268859 -63.705857 -75.924588 8.949176 -4.722406 16.628316 -20.557866 -78.043906 15.444330 -129.248654 83.017439 -131.008686 -11.551031 -10.539717 0.112606 0.035395 -0.309187 0.028953 0.987091 -77.256786 19.832472 87.847407 78.207228 84.690380 -12.108518 -7.894719 2.457403 0.113855 0.401154 0.051361
5.053252 46.018897 3.036765 166.212895 -9.749854 0.285132 2.202017 7.858989 0.158843 0.111415 0.386652 0.018418 0.193235 0.670562 0.033301 2.161865 7.385385 0.496495 -1.086613 21.714716 0.012554 -1.160505 -2.583568 0.259063 1.213659 5.564016 -5.440163 -1.742201 -5.173089 -2.398785 -53.884453 -77.920226 66.786761 -11.461173 -9.968230 -23.627669 -8.781326 3.386963 -3.504111 14.995834 -6.914293 8.838914 53.262517 -63.701973 -75.931156 8.948516 -4.729700 16.634600 -20.526544 -78.043039 15.413569 -129.254031 83.012960 -131.009330 -11.590150 -10.540354 0.116417 0.023068 -0.311671 0.024145 1.008017 -77.255466 19.813853 87.892460 78.211983 84.732070 -12.106023 -7.893450 2.463031 0.117484 0.393949 0.051002
